# xmcd
#
# Track frame offsets:
#	150
#	24878
#	41009
#	55233
#	77132
#
# Disc length: 1296 seconds
#
# Revision: 1
# Processed by: cddbd v1.5.2PL0 Copyright (c) Steve Scherf et al.
# Submitted via: audiograbber 1.83.01
#
DISCID=33050e05
DTITLE=Good Morning Yesterday - Green Sea
DYEAR=2015
DGENRE=Alternative
TTITLE0=Sunrays, Sunrise
TTITLE1=Almost Pretty
TTITLE2=Green Sea
TTITLE3=Ghost
TTITLE4=Man on Fire
EXTD=
EXTT0=
EXTT1=
EXTT2=
EXTT3=
EXTT4=
PLAYORDER=
